# xmcd
#
# Track frame offsets:
#	150
#	16483
#	28690
#	45554
#	57974
#	77177
#	87743
#	101636
#	113910
#	127288
#	140823
#	151203
#	163610
#
# Disc length: 2370 seconds
# Revision: 0
# Processed by: cddbd v1.5.2PL0 Copyright (c) Steve Scherf et al.
# Submitted via: dBpowerAMP V12.0
#
DISCID=b509400d
DTITLE=Danny Paisley and the Southern Grass - Road Into Town
DYEAR=2012
DGENRE=Country
TTITLE0=Road Into Town
TTITLE1=Margie
TTITLE2=Please Stop Falling
TTITLE3=Cherokee Shuffle
TTITLE4=I Overlooked an Orchid
TTITLE5=Alcatraz Island Blues
TTITLE6=Cabin on a Mountain
TTITLE7=You Can't Judge a Book by its Cover
TTITLE8=Dancin' with Sally
TTITLE9=My Shoes Keep Walking Back to You
TTITLE10=I Been Walkin'
TTITLE11=I Saw Your Face in the Moon
TTITLE12=I Heard My Mother Call My Name in Prayer
EXTD=
EXTT0=
EXTT1=
EXTT2=
EXTT3=
EXTT4=
EXTT5=
EXTT6=
EXTT7=
EXTT8=
EXTT9=
EXTT10=
EXTT11=
EXTT12=
PLAYORDER=
